{"title":"Out of Africa (1985) Meryl Streep+Robert Redford (Opt.MULTISUBS)","uid":4235467,"size":728318898,"categoryP":"video","categoryS":"movies","magnet":"?xt=urn:btih:5bd85e7e319bfa6956e93e50327e77c8f06675cb&amp;dn=Out+of+Africa+%281985%29+Meryl+Streep%2BRobert+Redford+%28Opt.MULTISUBS%29&amp;tr=udp%3A%2F%2Ftracker.openbittorrent.com%3A80&amp;tr=udp%3A%2F%2Fopen.demonii.com%3A1337&amp;tr=udp%3A%2F%2Ftracker.coppersurfer.tk%3A6969&amp;tr=udp%3A%2F%2Fexodus.desync.com%3A6969","seeders":13,"leechers":0,"uploader":"Kuthumi","files":-1,"time":1213284531,"description":"Optional Swedish subtitles in separate idx/sub files are included.\nAdditional subtitles (Nordic + English, Dutch, Hebrew, Hungarian) in this torrent: &lt;a href=&quot;\nhttp://thepiratebay.se/torrent/5482087&quot; rel=&quot;nofollow&quot; target=&quot;_NEW&quot;&gt;\nhttp://thepiratebay.se/torrent/5482087&lt;/a&gt;\n\n &lt;a href=&quot;\nhttp://www.imdb.com/title/tt0089755/&quot; rel=&quot;nofollow&quot; target=&quot;_NEW&quot;&gt;\nhttp://www.imdb.com/title/tt0089755/&lt;/a&gt;\n\nKaren Blixen's eternal love story from Kenya won 7 Oscars. Thank you, Denmark!\nOnly full DVDs remain here on PirateBay, so I made this rip for those of you who cannot download such dinosaurs. \n\nMeryl Streep developed her convincing Danish accent by listening to actual recordings of Karen Blixen reading her works.\nMore fun stuff at http://www.imdb.com/title/tt0089755/trivia\n\nDVDrip, widescreen, XviD 2-pass 704x384, great stereo sound, AC3.\nBurn tested, runs well in both my standalone DivX players.\n\nMy new ripping procedure now gives decent quality for such a long film compressed into just 700 MiB.\n\nFormat/Info                      : Audio Video Interleave\nFile size                        : 694 MiB\nDuration                         : 2h 34mn\nOveral bit rate                  : 629 Kbps\n\nVideo\nFormat                           : MPEG-4 Visual\nFormat profile                   : Streaming Video@L1\nFormat settings, BVOP            : Yes\nFormat settings, QPel            : No\nFormat settings, GMC             : No warppoints\nFormat settings, Matrix          : Default\nMuxing mode                      : Packet Bitstream\nCodec ID                         : XVID\nCodec ID/Hint                    : XviD\nDuration                         : 2h 34mn\nBit rate                         : 491 Kbps\nWidth                            : 704 pixels\nHeight                           : 384 pixels\nDisplay aspect ratio             : 16/9\nFrame rate                       : 25.000 fps\nResolution                       : 8 bits\nColorimetry                      : 4:2:0\nScan type                        : Progressive\nBits/(Pixel*Frame)               : 0.073\nStream size                      : 542 MiB\nWriting library                  : XviD 1.2.0.dev47 (UTC 2006-11-01)\n\nAudio\nFormat                           : MPEG Audio\nFormat version                   : Version 1\nFormat profile                   : Layer 3\nCodec ID                         : 55\nCodec ID/Hint                    : MP3\nDuration                         : 2h 34mn\nBit rate mode                    : Constant\nBit rate                         : 128 Kbps\nMinimum bit rate                 : 128 Kbps\nChannel(s)                       : 2 channels\nSampling rate                    : 48.0 KHz\nResolution                       : 16 bits\nStream size                      : 141 MiB\nWriting library                  : LAME3.97 \nEncoding settings                : CBR\n\nSource: PAL retail DVD 7.87 GiB \n(Note that the Avi container will work independently of PAL/NTSC.)\n","torrent":{"xt":"urn:btih:5bd85e7e319bfa6956e93e50327e77c8f06675cb","amp;dn":"Out+of+Africa+%281985%29+Meryl+Streep%2BRobert+Redford+%28Opt.MULTISUBS%29","amp;tr":["udp%3A%2F%2Ftracker.openbittorrent.com%3A80","udp%3A%2F%2Fopen.demonii.com%3A1337","udp%3A%2F%2Ftracker.coppersurfer.tk%3A6969","udp%3A%2F%2Fexodus.desync.com%3A6969"],"infoHash":"5bd85e7e319bfa6956e93e50327e77c8f06675cb","infoHashBuffer":{"type":"Buffer","data":[91,216,94,126,49,155,250,105,86,233,62,80,50,126,119,200,240,102,117,203]},"announce":[],"urlList":[]}}